<svg width="1440" height="860" viewBox="0 0 1440 860" fill="none" xmlns="http://www.w3.org/2000/svg">
<mask id="mask0_1_9" style="mask-type:alpha" maskUnits="userSpaceOnUse" x="0" y="505" width="1440" height="355">
<rect y="505" width="1440" height="355" fill="#D9D9D9"/>
</mask>
<g mask="url(#mask0_1_9)">
<mask id="mask1_1_9" style="mask-type:alpha" maskUnits="userSpaceOnUse" x="-719" y="357" width="2878" height="2878">
<circle cx="720" cy="1796" r="1439" fill="url(#paint0_radial_1_9)"/>
</mask>
<g mask="url(#mask1_1_9)">
<g opacity="0.4">
<path d="M37.0542 766.988C37.0519 767.582 37.2259 768.163 37.5541 768.658C37.8823 769.153 38.35 769.54 38.898 769.768C39.446 769.997 40.0495 770.058 40.6322 769.944C41.215 769.83 41.7506 769.545 42.1713 769.126C42.5921 768.707 42.879 768.172 42.9957 767.59C43.1124 767.008 43.0537 766.404 42.827 765.855C42.6003 765.306 42.2157 764.837 41.7221 764.507C41.2286 764.176 40.6481 764 40.0542 764C39.2606 764 38.4993 764.315 37.9371 764.875C37.3748 765.435 37.0573 766.195 37.0542 766.988ZM41.7601 766.988C41.7624 767.329 41.6634 767.663 41.4755 767.947C41.2877 768.231 41.0196 768.453 40.7052 768.585C40.3909 768.716 40.0446 768.751 39.7103 768.685C39.376 768.62 39.0689 768.456 38.8279 768.215C38.587 767.974 38.4232 767.667 38.3573 767.332C38.2914 766.998 38.3264 766.652 38.4579 766.337C38.5893 766.023 38.8113 765.755 39.0955 765.567C39.3798 765.379 39.7135 765.28 40.0542 765.283C40.5066 765.283 40.9405 765.462 41.2605 765.782C41.5804 766.102 41.7601 766.536 41.7601 766.988Z" fill="#162029"/>
<path d="M54.5442 926.5L54.5442 875.5L40.0442 861L40.0442 769" stroke="#162029"/>
</g>
<path d="M38.5542 715.5L38.5543 746.5L51.0543 761.5L51.0543 796" stroke="#A6D0DD"/>
<path d="M54.0542 798.012C54.0565 797.418 53.8825 796.837 53.5543 796.342C53.2261 795.847 52.7584 795.461 52.2104 795.232C51.6624 795.003 51.0589 794.942 50.4762 795.056C49.8934 795.171 49.3578 795.456 48.9371 795.875C48.5163 796.294 48.2294 796.828 48.1127 797.411C47.996 797.993 48.0547 798.597 48.2814 799.146C48.5081 799.694 48.8926 800.164 49.3862 800.494C49.8798 800.824 50.4603 801 51.0542 801C51.8478 801 52.6091 800.686 53.1713 800.126C53.7336 799.566 54.0511 798.806 54.0542 798.012ZM49.3483 798.012C49.346 797.671 49.445 797.338 49.6329 797.053C49.8207 796.769 50.0888 796.547 50.4032 796.416C50.7175 796.284 51.0638 796.249 51.3981 796.315C51.7324 796.381 52.0395 796.545 52.2805 796.786C52.5214 797.027 52.6852 797.334 52.7511 797.668C52.817 798.002 52.782 798.349 52.6505 798.663C52.5191 798.977 52.2971 799.245 52.0129 799.433C51.7286 799.621 51.3949 799.72 51.0542 799.718C50.6017 799.718 50.1678 799.538 49.8479 799.218C49.528 798.898 49.3483 798.464 49.3483 798.012Z" fill="#A6D0DD"/>
<path d="M42.0542 713.012C42.0565 712.418 41.8825 711.837 41.5543 711.342C41.2261 710.847 40.7584 710.461 40.2104 710.232C39.6624 710.003 39.0589 709.942 38.4762 710.056C37.8934 710.171 37.3578 710.456 36.9371 710.875C36.5163 711.294 36.2294 711.828 36.1127 712.411C35.996 712.993 36.0547 713.597 36.2814 714.146C36.5081 714.694 36.8926 715.164 37.3862 715.494C37.8798 715.824 38.4603 716 39.0542 716C39.8478 716 40.6091 715.686 41.1713 715.126C41.7336 714.566 42.0511 713.806 42.0542 713.012ZM37.3483 713.012C37.346 712.671 37.445 712.338 37.6329 712.053C37.8207 711.769 38.0888 711.547 38.4032 711.416C38.7175 711.284 39.0638 711.249 39.3981 711.315C39.7324 711.381 40.0395 711.545 40.2805 711.786C40.5214 712.027 40.6852 712.334 40.7511 712.668C40.817 713.002 40.782 713.349 40.6505 713.663C40.5191 713.977 40.2971 714.245 40.0129 714.433C39.7286 714.621 39.3949 714.72 39.0542 714.718C38.6017 714.718 38.1678 714.538 37.8479 714.218C37.528 713.898 37.3483 713.464 37.3483 713.012Z" fill="#A6D0DD"/>
<g opacity="0.5">
<g opacity="0.4">
<circle cx="584" cy="670" r="4" fill="#162029"/>
<circle cx="596" cy="670" r="4" fill="#162029"/>
<circle cx="608" cy="670" r="4" fill="#162029"/>
<circle cx="620" cy="670" r="4" fill="#162029"/>
<circle cx="632" cy="670" r="4" fill="#162029"/>
</g>
<g opacity="0.4">
<circle cx="584" cy="683" r="4" fill="#162029"/>
<circle cx="596" cy="683" r="4" fill="#162029"/>
<circle cx="608" cy="683" r="4" fill="#162029"/>
<circle cx="620" cy="683" r="4" fill="#FF6969"/>
<circle cx="632" cy="683" r="4" fill="#162029"/>
</g>
</g>
<circle opacity="0.3" cx="1325" cy="598" r="4" fill="#162029"/>
<circle opacity="0.3" cx="19.0542" cy="803" r="3" transform="rotate(-90 19.0542 803)" fill="#162029"/>
<circle opacity="0.4" cx="19.0542" cy="793" r="3" transform="rotate(-90 19.0542 793)" fill="#162029"/>
<circle opacity="0.3" cx="19.0542" cy="783" r="3" transform="rotate(-90 19.0542 783)" fill="#162029"/>
<circle cx="19.0542" cy="773" r="3" transform="rotate(-90 19.0542 773)" fill="#A6D0DD"/>
<g opacity="0.4">
<circle cx="626.054" cy="857" r="2.25" transform="rotate(180 626.054 857)" stroke="#162029" stroke-width="1.5"/>
<circle cx="626.054" cy="821" r="2.25" transform="rotate(180 626.054 821)" stroke="#162029" stroke-width="1.5"/>
<path d="M626.054 854.5C626.054 828.9 626.054 822.5 626.054 822.5" stroke="#162029"/>
</g>
<g opacity="0.4">
<circle cx="608.054" cy="840" r="2.25" transform="rotate(180 608.054 840)" stroke="#162029" stroke-width="1.5"/>
<path d="M608.054 873.5C608.054 847.9 608.054 841.5 608.054 841.5" stroke="#162029"/>
</g>
<g opacity="0.4">
<circle cx="617.054" cy="824" r="2.25" transform="rotate(180 617.054 824)" stroke="#162029" stroke-width="1.5"/>
<path d="M617.054 884C617.054 837.6 617.054 826 617.054 826" stroke="#162029"/>
</g>
<g opacity="0.4">
<circle cx="50.0542" cy="811" r="2.25" stroke="#162029" stroke-width="1.5"/>
<circle cx="50.0542" cy="855" r="2.25" stroke="#162029" stroke-width="1.5"/>
<path d="M50.0542 814C50.0542 846 50.0542 854 50.0542 854" stroke="#162029"/>
</g>
<path opacity="0.4" d="M469.054 839L469.054 866" stroke="#162029"/>
<path opacity="0.4" d="M484.054 854L484.054 881" stroke="#162029"/>
<path opacity="0.4" d="M478.054 839L478.054 887" stroke="#162029"/>
<path opacity="0.4" d="M1086 666L1086 723" stroke="#162029"/>
<path opacity="0.4" d="M1101 711L1101 738" stroke="#162029"/>
<path opacity="0.4" d="M1095 696L1095 744" stroke="#162029"/>
<path opacity="0.4" d="M291 591L291 682.929" stroke="url(#paint1_linear_1_9)"/>
<path opacity="0.4" d="M299 630.214L299 661.714" stroke="#162029"/>
<path d="M283 621.857L283 690" stroke="#FF6969"/>
<path d="M343.554 883L343.554 802.5L363.554 782L370.054 782" stroke="url(#paint2_linear_1_9)"/>
<circle cx="372.054" cy="782" r="2.25" transform="rotate(-90 372.054 782)" stroke="#ACCAD6" stroke-width="1.5"/>
<g opacity="0.4">
<circle cx="315.054" cy="828" r="2.25" transform="rotate(-90 315.054 828)" stroke="#162029" stroke-width="1.5"/>
<circle cx="332.054" cy="828" r="2.25" transform="rotate(-90 332.054 828)" stroke="#162029" stroke-width="1.5"/>
<path d="M318.054 828C327.654 828 330.054 828 330.054 828" stroke="#162029"/>
</g>
<g opacity="0.4">
<path d="M334.554 903.5L334.554 854L321.054 843L302.054 843" stroke="#162029"/>
<path d="M297.054 843.012C297.052 842.418 297.226 841.837 297.554 841.342C297.882 840.847 298.35 840.461 298.898 840.232C299.446 840.003 300.05 839.942 300.632 840.056C301.215 840.171 301.751 840.456 302.171 840.875C302.592 841.294 302.879 841.828 302.996 842.411C303.112 842.993 303.054 843.597 302.827 844.146C302.6 844.694 302.216 845.164 301.722 845.494C301.229 845.824 300.648 846 300.054 846C299.261 846 298.499 845.686 297.937 845.126C297.375 844.566 297.057 843.806 297.054 843.012ZM301.76 843.012C301.762 842.671 301.663 842.338 301.476 842.053C301.288 841.769 301.02 841.547 300.705 841.416C300.391 841.284 300.045 841.249 299.71 841.315C299.376 841.381 299.069 841.545 298.828 841.786C298.587 842.027 298.423 842.334 298.357 842.668C298.291 843.002 298.326 843.349 298.458 843.663C298.589 843.977 298.811 844.245 299.096 844.433C299.38 844.621 299.714 844.72 300.054 844.718C300.507 844.718 300.941 844.538 301.26 844.218C301.58 843.898 301.76 843.464 301.76 843.012Z" fill="#162029"/>
</g>
<path d="M343.5 883L343.5 802.5L363.5 782L370 782" stroke="url(#paint3_linear_1_9)"/>
<circle cx="372" cy="782" r="2.25" transform="rotate(-90 372 782)" stroke="#ACCAD6" stroke-width="1.5"/>
<g opacity="0.4">
<circle cx="315" cy="828" r="2.25" transform="rotate(-90 315 828)" stroke="#162029" stroke-width="1.5"/>
<circle cx="332" cy="828" r="2.25" transform="rotate(-90 332 828)" stroke="#162029" stroke-width="1.5"/>
<path d="M318 828C327.6 828 330 828 330 828" stroke="#162029"/>
</g>
<g opacity="0.4">
<path d="M334.5 903.5L334.5 854L321 843L302 843" stroke="#162029"/>
<path d="M297 843.012C296.998 842.418 297.172 841.837 297.5 841.342C297.828 840.847 298.296 840.461 298.844 840.232C299.392 840.003 299.995 839.942 300.578 840.056C301.161 840.171 301.696 840.456 302.117 840.875C302.538 841.294 302.825 841.828 302.941 842.411C303.058 842.993 302.999 843.597 302.773 844.146C302.546 844.694 302.162 845.164 301.668 845.494C301.174 845.824 300.594 846 300 846C299.206 846 298.445 845.686 297.883 845.126C297.321 844.566 297.003 843.806 297 843.012ZM301.706 843.012C301.708 842.671 301.609 842.338 301.421 842.053C301.233 841.769 300.965 841.547 300.651 841.416C300.337 841.284 299.99 841.249 299.656 841.315C299.322 841.381 299.015 841.545 298.774 841.786C298.533 842.027 298.369 842.334 298.303 842.668C298.237 843.002 298.272 843.349 298.404 843.663C298.535 843.977 298.757 844.245 299.041 844.433C299.326 844.621 299.659 844.72 300 844.718C300.452 844.718 300.886 844.538 301.206 844.218C301.526 843.898 301.706 843.464 301.706 843.012Z" fill="#162029"/>
</g>
<g opacity="0.5">
<path d="M554.594 799.576L560.174 805.156V813.047L560.181 820.945L560.174 828.844V836.735L560.181 844.633L560.174 852.532V860.423V868.314L560.181 876.213L560.181 884.104V891.995L565.76 897.574L571.346 903.161L576.932 908.747L582.511 914.326L588.09 919.905L588.09 927.81L588.09 935.702L588.09 943.593L588.083 951.491L588.083 959.383L588.09 967.281V975.172L588.09 983.064L588.09 990.969L588.09 998.86L588.09 1006.75L588.09 1014.64L588.083 1022.54L588.09 1030.44L582.511 1036.02L576.925 1041.6L571.346 1047.18L565.76 1052.77L560.181 1058.35L554.594 1052.76" stroke="#162029" stroke-linecap="round" stroke-linejoin="round"/>
<path d="M553.308 795.036C553.744 795.123 554.145 795.337 554.46 795.652C554.882 796.074 555.119 796.646 555.119 797.243C555.119 797.84 554.882 798.412 554.46 798.834C554.145 799.149 553.744 799.363 553.308 799.45C552.872 799.537 552.419 799.492 552.008 799.322C551.597 799.152 551.246 798.863 550.998 798.493C550.751 798.123 550.619 797.688 550.619 797.243C550.619 796.798 550.751 796.363 550.998 795.993C551.246 795.623 551.597 795.335 552.008 795.164L551.721 794.471L552.008 795.164C552.419 794.994 552.872 794.949 553.308 795.036Z" stroke="#162029" stroke-width="1.5"/>
</g>
<g opacity="0.6">
<path d="M365.054 709C384.254 709 389.054 709 389.054 709" stroke="url(#paint4_linear_1_9)"/>
<circle cx="3" cy="3" r="2.25" transform="matrix(4.37114e-08 1 1 -4.37114e-08 360.054 706)" stroke="#A5CEDB" stroke-width="1.5"/>
<circle cx="3" cy="3" r="2.25" transform="matrix(4.37114e-08 1 1 -4.37114e-08 388.054 706)" stroke="#9C9B97" stroke-width="1.5"/>
<g opacity="0.4">
<path d="M195.054 759C241.454 759 253.054 759 253.054 759" stroke="#162029"/>
<circle cx="3" cy="3" r="2.25" transform="matrix(4.37114e-08 1 1 -4.37114e-08 190.054 756)" stroke="#162029" stroke-width="1.5"/>
<circle cx="3" cy="3" r="2.25" transform="matrix(4.37114e-08 1 1 -4.37114e-08 252.054 756)" stroke="#162029" stroke-width="1.5"/>
</g>
<g opacity="0.4">
<path d="M179.054 772.72L184.644 767.14L192.534 767.14L200.434 767.14L208.324 767.14L216.224 767.14L224.114 767.14L232.014 767.14L239.904 767.14L247.804 767.14L255.694 767.14L263.594 767.14L271.484 767.14L279.374 767.14L287.274 767.14L292.854 761.56L298.434 755.98L304.024 750.39L309.604 744.81L315.184 739.23L320.764 733.65L326.354 728.06L331.934 722.48L337.514 716.9L343.094 711.32L348.674 705.74L354.264 700.16L362.154 700.16L370.054 700.16L377.944 700.16L385.844 700.16L393.734 700.16L401.624 700.16L407.214 694.57" stroke="#162029" stroke-linecap="round" stroke-linejoin="round"/>
<path d="M410.507 693.405C410.428 693.839 410.222 694.24 409.917 694.558C409.707 694.777 409.455 694.951 409.176 695.07C408.897 695.189 408.597 695.25 408.294 695.25C407.991 695.25 407.691 695.189 407.412 695.07C407.134 694.951 406.882 694.777 406.672 694.558C406.366 694.24 406.161 693.839 406.081 693.405C406.002 692.972 406.051 692.524 406.224 692.118C406.397 691.712 406.686 691.366 407.054 691.123C407.422 690.879 407.853 690.75 408.294 690.75C408.735 690.75 409.167 690.879 409.535 691.123C409.903 691.366 410.191 691.712 410.364 692.118C410.537 692.524 410.587 692.972 410.507 693.405Z" stroke="#162029" stroke-width="1.5"/>
<path d="M179.267 775.405C179.188 775.839 178.982 776.24 178.677 776.558C178.467 776.777 178.215 776.951 177.936 777.07C177.657 777.188 177.357 777.25 177.054 777.25C176.751 777.25 176.451 777.188 176.172 777.07C175.894 776.951 175.642 776.777 175.432 776.558C175.126 776.24 174.921 775.839 174.841 775.405C174.762 774.971 174.811 774.524 174.984 774.118C175.157 773.712 175.446 773.366 175.814 773.123C176.182 772.879 176.613 772.75 177.054 772.75C177.495 772.75 177.927 772.879 178.295 773.123C178.663 773.366 178.951 773.712 179.124 774.118C179.297 774.524 179.347 774.971 179.267 775.405Z" stroke="#162029" stroke-width="1.5"/>
</g>
</g>
<g opacity="0.4">
<path d="M266.054 911C266.054 864.6 266.054 853 266.054 853" stroke="#162029"/>
<circle cx="3" cy="3" r="2.25" transform="matrix(1 0 0 -1 263.054 854)" stroke="#162029" stroke-width="1.5"/>
</g>
<g opacity="0.4">
<path d="M256.054 882C256.054 835.6 256.054 824 256.054 824" stroke="#162029"/>
<circle cx="3" cy="3" r="2.25" transform="matrix(1 0 0 -1 253.054 825)" stroke="#162029" stroke-width="1.5"/>
</g>
<g opacity="0.3">
<path d="M385.613 789.303L432.282 835.972L432.282 923.654" stroke="black"/>
<circle cx="383.845" cy="788.243" r="2.25" transform="rotate(135 383.845 788.243)" stroke="#162029" stroke-width="1.5"/>
</g>
<g opacity="0.4">
<path d="M201.813 607.303L155.144 653.972V741.653" stroke="black"/>
<circle cx="3" cy="3" r="2.25" transform="matrix(0.707107 0.707107 0.707107 -0.707107 150.548 744.128)" stroke="#162029" stroke-width="1.5"/>
<circle cx="3" cy="3" r="2.25" transform="matrix(0.707107 0.707107 0.707107 -0.707107 199.338 606.242)" stroke="#162029" stroke-width="1.5"/>
</g>
<g opacity="0.4">
<path d="M42.1482 612.426C42.1482 578.485 42.1482 570 42.1482 570" stroke="#162029"/>
<circle cx="3" cy="3" r="2.25" transform="matrix(1 -2.3597e-08 -2.3597e-08 -1 39.2609 617.556)" stroke="#162029" stroke-width="1.5"/>
<circle cx="3" cy="3" r="2.25" transform="matrix(1 -2.3597e-08 -2.3597e-08 -1 39.1482 571)" stroke="#162029" stroke-width="1.5"/>
</g>
<g opacity="0.3">
<path d="M32.2488 606.769C32.2488 583.011 32.2488 577.071 32.2488 577.071" stroke="#162029"/>
<circle cx="3" cy="3" r="2.25" transform="matrix(1 -2.3597e-08 -2.3597e-08 -1 29.3615 611.899)" stroke="#162029" stroke-width="1.5"/>
<circle cx="3" cy="3" r="2.25" transform="matrix(1 -2.3597e-08 -2.3597e-08 -1 29.2488 578.071)" stroke="#162029" stroke-width="1.5"/>
</g>
<g opacity="0.4">
<path d="M494 754.699C494 730.94 494 725 494 725" stroke="#162029"/>
<circle cx="3" cy="3" r="2.25" transform="matrix(1 0 0 -1 491.113 759.829)" stroke="#162029" stroke-width="1.5"/>
<circle cx="3" cy="3" r="2.25" transform="matrix(1 0 0 -1 491 726)" stroke="#162029" stroke-width="1.5"/>
</g>
<g opacity="0.3">
<path d="M23 628.763C23 582.363 23 570.763 23 570.763" stroke="#162029"/>
<circle cx="3" cy="3" r="2.25" transform="matrix(1 -2.3597e-08 -2.3597e-08 -1 20 633.763)" stroke="#162029" stroke-width="1.5"/>
<circle cx="3" cy="3" r="2.25" transform="matrix(1 -2.3597e-08 -2.3597e-08 -1 20 571.763)" stroke="#162029" stroke-width="1.5"/>
</g>
<g opacity="0.4">
<path d="M176 728C176 681.6 176 670 176 670" stroke="#162029"/>
<circle cx="3" cy="3" r="2.25" transform="matrix(1 -2.18557e-08 -2.18557e-08 -1 173 733)" stroke="#162029" stroke-width="1.5"/>
<circle cx="3" cy="3" r="2.25" transform="matrix(1 -2.18557e-08 -2.18557e-08 -1 173 671)" stroke="#162029" stroke-width="1.5"/>
</g>
<g opacity="0.3">
<path d="M-256.946 697L-251.366 702.58L-245.786 708.16L-240.196 713.75L-234.616 719.33L-229.036 724.91L-223.456 730.49L-217.876 736.07L-212.286 741.66L-206.706 747.24L-198.816 747.24L-190.916 747.24L-183.026 747.24L-175.126 747.24L-167.236 747.24L-159.336 747.24L-151.446 747.24L-143.546 747.24L-135.656 747.24L-127.756 747.24L-119.866 747.24L-111.966 747.24L-104.076 747.24L-96.1858 747.24L-88.2858 747.24L-80.3958 747.24L-72.4958 747.24L-66.9158 752.82L-61.3358 758.4L-55.7458 763.99L-50.1658 769.57L-44.5858 775.15L-39.0058 780.73L-33.4258 786.31L-27.8358 791.9L-22.2558 797.48L-16.6758 803.06L-11.0858 808.65L-5.50583 814.23L0.0741726 819.81L5.65417 825.39L11.2442 830.98L16.8242 836.56L22.4042 842.14L22.4042 850.03L22.4042 857.93L22.4042 871.5" stroke="#162029" stroke-linecap="round" stroke-linejoin="round"/>
</g>
<g opacity="0.3">
<path d="M119.772 491L119.772 498.891L119.772 506.783L119.772 514.674L119.779 522.572L119.772 530.471V538.362L119.772 546.253L119.772 554.145L119.772 562.05L119.772 569.941L119.772 577.833L119.779 585.731L119.772 593.629L119.772 601.521L114.193 607.1L108.607 612.686L103.028 618.265L97.442 623.851L91.8629 629.43L86.2768 635.016L80.6977 640.595V648.487L86.2838 654.073L91.8629 659.652L97.442 665.231L97.449 673.129L97.442 681.028L97.442 688.919L97.449 696.818L103.028 702.397L108.614 707.983L114.193 713.562L119.772 719.141L125.359 724.727L125.351 797.428L125.351 805.319L125.359 813.217L125.359 821.109L125.359 829" stroke="#162029" stroke-linecap="round" stroke-linejoin="round"/>
<path d="M122.841 830.567C122.841 831.066 122.988 831.553 123.265 831.968C123.542 832.383 123.935 832.706 124.396 832.897C124.856 833.088 125.363 833.139 125.852 833.041C126.341 832.944 126.791 832.704 127.143 832.352C127.496 831.999 127.736 831.55 127.833 831.061C127.93 830.572 127.88 830.065 127.689 829.604C127.498 829.144 127.174 828.75 126.76 828.473C126.345 828.197 125.857 828.049 125.359 828.05C125.027 828.047 124.699 828.111 124.392 828.237C124.086 828.362 123.808 828.548 123.573 828.782C123.339 829.016 123.154 829.295 123.028 829.601C122.902 829.907 122.839 830.236 122.841 830.567Z" fill="#162029"/>
</g>
<g opacity="0.4">
<path d="M0.28053 936.57L0.28053 928.68L0.280529 920.79L0.280529 912.89L0.280529 905L0.280528 897.1L0.280528 889.2L0.280528 881.31L0.280527 873.42L0.280527 865.52L0.280526 857.63L0.280526 849.73L-5.30947 844.15L-10.8895 838.57L-16.4695 832.98L-22.0595 827.4L-27.6395 821.82L-33.2195 816.24L-38.7995 810.66L-44.3795 805.08L-49.9695 799.49L-55.5495 793.91L-61.1295 788.33L-66.7095 782.74L-72.2995 777.16L-77.8795 771.58L-83.4595 766L-89.0395 760.41L-94.6295 754.83L-100.209 749.25L-100.209 741.36L-100.209 733.46L-100.209 725.57L-100.209 717.67L-100.209 709.78L-105.789 704.19L-111.369 698.61L-116.949 693.03L-122.539 687.45L-128.119 681.87L-133.699 676.28L-139.289 670.7L-144.869 665.12L-150.449 659.54L-156.029 653.95" stroke="#162029" stroke-linecap="round" stroke-linejoin="round"/>
</g>
<g opacity="0.3">
<path d="M-121.946 622.5L-51.4458 693V743.5L17.0542 812.5" stroke="black"/>
<path d="M19.5045 811.794C19.9415 811.881 20.3425 812.095 20.6575 812.408C21.0724 812.835 21.3042 813.406 21.3042 814C21.3042 814.594 21.0724 815.165 20.6575 815.592C20.3425 815.905 19.9415 816.119 19.5045 816.206C19.0661 816.294 18.6115 816.249 18.1984 816.079C17.7854 815.908 17.4326 815.62 17.1845 815.25C16.9365 814.88 16.8042 814.445 16.8042 814C16.8042 813.555 16.9365 813.12 17.1845 812.75C17.4326 812.38 17.7854 812.091 18.1984 811.921C18.6115 811.751 19.0661 811.706 19.5045 811.794Z" stroke="#162029" stroke-width="1.5"/>
</g>
<g opacity="0.3">
<path d="M673.415 784.011L673.415 883.713L637.706 919.422L637.353 1016.65" stroke="black"/>
<path d="M675.647 781.001C675.895 781.372 676.027 781.807 676.028 782.251C676.019 782.846 675.78 783.414 675.36 783.834C674.94 784.254 674.372 784.494 673.777 784.502C673.332 784.501 672.897 784.369 672.527 784.121C672.155 783.873 671.865 783.52 671.693 783.108C671.522 782.695 671.477 782.242 671.563 781.805C671.649 781.368 671.863 780.966 672.178 780.652C672.492 780.337 672.893 780.123 673.33 780.037C673.767 779.951 674.221 779.996 674.634 780.168C675.046 780.339 675.399 780.629 675.647 781.001Z" stroke="#162029" stroke-width="1.5"/>
</g>
<g opacity="0.2">
<path d="M444.642 968L444.642 933.873L444.642 925.982L444.642 918.091L444.649 910.192L444.642 902.294L444.642 894.403L444.642 886.511L444.642 878.62L444.642 870.715L444.642 862.823L444.642 854.932L444.649 847.034L444.642 839.135L444.642 831.244L439.063 825.665L433.477 820.079L427.898 814.5L422.312 808.913L416.733 803.334L411.146 797.748L405.567 792.169L405.567 784.278L411.153 778.692L416.733 773.113L422.312 767.534L422.319 759.635L422.312 751.737L422.312 743.846L422.319 735.947L427.898 730.368L433.484 724.782L439.063 719.203L444.642 713.624L450.228 708.038L450.221 700.139L450.221 692.248L450.228 684.35L450.228 676.458L450.228 668.567" stroke="#162029" stroke-linecap="round" stroke-linejoin="round"/>
<path d="M447.711 668.567C447.71 668.068 447.858 667.581 448.134 667.166C448.411 666.751 448.805 666.428 449.265 666.236C449.726 666.045 450.233 665.995 450.722 666.092C451.211 666.19 451.66 666.43 452.013 666.782C452.365 667.135 452.605 667.584 452.703 668.073C452.8 668.562 452.75 669.069 452.559 669.53C452.367 669.99 452.044 670.384 451.629 670.661C451.214 670.937 450.727 671.085 450.228 671.084C449.897 671.086 449.569 671.023 449.262 670.897C448.956 670.772 448.677 670.586 448.443 670.352C448.209 670.118 448.023 669.839 447.898 669.533C447.772 669.226 447.709 668.898 447.711 668.567Z" fill="#162029"/>
</g>
<g opacity="0.2">
<path d="M600.539 740L600.539 747.9L600.539 755.79L600.539 763.68L594.959 769.26L589.379 774.85L583.789 780.43L578.209 786.01L572.629 791.6L572.629 799.49L572.629 807.39L572.629 815.28L572.629 823.17L572.629 831.07L572.629 838.96L572.629 846.86L572.629 854.76L572.629 862.65L572.629 870.54" stroke="#162029" stroke-linecap="round" stroke-linejoin="round"/>
<path d="M600.06 739.249C600.645 739.265 601.214 739.06 601.653 738.675C602.071 738.237 602.304 737.655 602.304 737.05C602.304 736.439 602.067 735.852 601.642 735.413C601.203 734.988 600.616 734.75 600.005 734.75C599.399 734.75 598.817 734.984 598.38 735.402C597.995 735.841 597.789 736.41 597.805 736.994C597.822 737.587 598.064 738.151 598.484 738.571C598.903 738.99 599.467 739.233 600.06 739.249Z" stroke="#162029" stroke-width="1.5"/>
</g>
<g opacity="0.2">
<path d="M270.054 736V743.9V751.79V759.69V767.58V775.48V783.37V791.27V799.16V807.06V814.95V822.85V830.74L275.634 836.32V844.22V852.11V860.01V867.9V875.8V883.69V891.59V899.48V907.37V915.27V923.16V931.06" stroke="#162029" stroke-linecap="round" stroke-linejoin="round"/>
</g>
<path d="M1425.5 581.5L1425.5 644L1377.5 692L1360 692" stroke="url(#paint5_linear_1_9)"/>
<circle cx="1358" cy="692" r="2.25" transform="rotate(90 1358 692)" stroke="#9B9793" stroke-width="1.5"/>
<circle cx="1425.5" cy="579" r="2.25" transform="rotate(90 1425.5 579)" stroke="#A5CFDC" stroke-width="1.5"/>
<g opacity="0.3">
<path d="M990 716.499L990 627.999L1005 612.999" stroke="black"/>
<path d="M1002.91 609.999C1002.91 611.156 1003.31 612.277 1004.04 613.172C1004.78 614.066 1005.8 614.678 1006.94 614.904C1008.07 615.13 1009.25 614.954 1010.27 614.409C1011.29 613.863 1012.09 612.98 1012.53 611.911C1012.97 610.842 1013.03 609.652 1012.69 608.545C1012.36 607.438 1011.65 606.482 1010.68 605.84C1009.72 605.198 1008.57 604.91 1007.41 605.024C1006.26 605.139 1005.19 605.65 1004.37 606.469C1003.44 607.406 1002.91 608.675 1002.91 609.999ZM1009.91 609.999C1009.91 610.394 1009.79 610.78 1009.57 611.109C1009.36 611.438 1009.04 611.695 1008.68 611.847C1008.31 611.999 1007.91 612.039 1007.52 611.963C1007.14 611.887 1006.78 611.697 1006.5 611.419C1006.31 611.233 1006.17 611.012 1006.07 610.77C1005.97 610.527 1005.91 610.267 1005.91 610.004C1005.91 609.741 1005.97 609.481 1006.07 609.238C1006.17 608.995 1006.31 608.775 1006.5 608.589C1006.87 608.216 1007.38 608.007 1007.91 608.007C1008.44 608.007 1008.95 608.216 1009.32 608.589C1009.7 608.962 1009.91 609.469 1009.91 609.999Z" fill="black"/>
</g>
<path d="M991 715.999L991 626.999L1006 611.999" stroke="white"/>
<path d="M1003.91 608.999C1003.91 610.156 1004.31 611.277 1005.04 612.172C1005.78 613.066 1006.8 613.678 1007.94 613.904C1009.07 614.13 1010.25 613.954 1011.27 613.409C1012.29 612.863 1013.09 611.98 1013.53 610.911C1013.97 609.842 1014.03 608.652 1013.69 607.545C1013.36 606.438 1012.65 605.482 1011.68 604.84C1010.72 604.198 1009.57 603.91 1008.41 604.024C1007.26 604.139 1006.19 604.65 1005.37 605.469C1004.44 606.406 1003.91 607.675 1003.91 608.999ZM1010.91 608.999C1010.91 609.394 1010.79 609.78 1010.57 610.109C1010.36 610.438 1010.04 610.695 1009.68 610.847C1009.31 610.999 1008.91 611.039 1008.52 610.963C1008.14 610.887 1007.78 610.697 1007.5 610.419C1007.31 610.233 1007.17 610.012 1007.07 609.77C1006.97 609.527 1006.91 609.267 1006.91 609.004C1006.91 608.741 1006.97 608.481 1007.07 608.238C1007.17 607.995 1007.31 607.775 1007.5 607.589C1007.87 607.216 1008.38 607.007 1008.91 607.007C1009.44 607.007 1009.95 607.216 1010.32 607.589C1010.7 607.962 1010.91 608.469 1010.91 608.999Z" fill="white"/>
<g opacity="0.5">
<path d="M1239.05 849.711C1239.06 849.117 1238.88 848.536 1238.55 848.041C1238.23 847.546 1237.76 847.16 1237.21 846.931C1236.66 846.702 1236.06 846.641 1235.48 846.756C1234.89 846.87 1234.36 847.155 1233.94 847.574C1233.52 847.993 1233.23 848.528 1233.11 849.11C1233 849.692 1233.05 850.296 1233.28 850.845C1233.51 851.394 1233.89 851.863 1234.39 852.193C1234.88 852.523 1235.46 852.699 1236.05 852.699C1236.85 852.699 1237.61 852.385 1238.17 851.825C1238.73 851.265 1239.05 850.505 1239.05 849.711ZM1234.35 849.711C1234.35 849.371 1234.45 849.037 1234.63 848.753C1234.82 848.468 1235.09 848.246 1235.4 848.115C1235.72 847.983 1236.06 847.948 1236.4 848.014C1236.73 848.08 1237.04 848.244 1237.28 848.485C1237.52 848.726 1237.69 849.033 1237.75 849.367C1237.82 849.702 1237.78 850.048 1237.65 850.362C1237.52 850.677 1237.3 850.945 1237.01 851.133C1236.73 851.32 1236.39 851.419 1236.05 851.417C1235.6 851.417 1235.17 851.237 1234.85 850.917C1234.53 850.598 1234.35 850.164 1234.35 849.711Z" fill="#162029"/>
<path d="M1221.56 690.199V741.199L1236.06 755.699V847.699" stroke="#162029"/>
</g>
<g opacity="0.7">
<path d="M979.5 763.999L979.5 673.499L967 658.499L967 623.999" stroke="url(#paint6_linear_1_9)"/>
<path d="M964 621.987C963.998 622.581 964.172 623.162 964.5 623.657C964.828 624.152 965.296 624.538 965.844 624.767C966.392 624.996 966.995 625.057 967.578 624.943C968.161 624.828 968.696 624.543 969.117 624.124C969.538 623.705 969.825 623.171 969.941 622.589C970.058 622.006 969.999 621.402 969.773 620.854C969.546 620.305 969.162 619.835 968.668 619.505C968.174 619.175 967.594 618.999 967 618.999C966.206 618.999 965.445 619.313 964.883 619.873C964.321 620.433 964.003 621.194 964 621.987ZM968.706 621.987C968.708 622.328 968.609 622.662 968.421 622.946C968.233 623.23 967.965 623.452 967.651 623.584C967.337 623.715 966.99 623.75 966.656 623.684C966.322 623.618 966.015 623.454 965.774 623.213C965.533 622.972 965.369 622.665 965.303 622.331C965.237 621.997 965.272 621.65 965.404 621.336C965.535 621.022 965.757 620.754 966.041 620.566C966.326 620.378 966.659 620.279 967 620.281C967.452 620.281 967.886 620.461 968.206 620.781C968.526 621.101 968.706 621.535 968.706 621.987Z" fill="#D6C3BA"/>
<path d="M976 765.987C975.998 766.581 976.172 767.162 976.5 767.657C976.828 768.152 977.296 768.538 977.844 768.767C978.392 768.996 978.995 769.057 979.578 768.943C980.161 768.828 980.696 768.543 981.117 768.124C981.538 767.705 981.825 767.171 981.942 766.589C982.058 766.006 982 765.402 981.773 764.854C981.546 764.305 981.162 763.835 980.668 763.505C980.174 763.175 979.594 762.999 979 762.999C978.206 762.999 977.445 763.313 976.883 763.873C976.321 764.433 976.003 765.194 976 765.987ZM980.706 765.987C980.708 766.328 980.609 766.662 980.421 766.946C980.234 767.23 979.965 767.452 979.651 767.584C979.337 767.715 978.99 767.75 978.656 767.684C978.322 767.618 978.015 767.454 977.774 767.213C977.533 766.972 977.369 766.665 977.303 766.331C977.237 765.997 977.272 765.65 977.404 765.336C977.535 765.022 977.757 764.754 978.041 764.566C978.326 764.378 978.659 764.279 979 764.281C979.452 764.281 979.886 764.461 980.206 764.781C980.526 765.101 980.706 765.535 980.706 765.987Z" fill="#CBC3BA"/>
</g>
<path d="M1237.55 901.199L1237.55 870.199L1225.05 855.199L1225.05 820.699" stroke="#A6D0DD"/>
<path d="M1222.05 818.688C1222.05 819.282 1222.23 819.863 1222.55 820.358C1222.88 820.852 1223.35 821.239 1223.9 821.468C1224.45 821.697 1225.05 821.758 1225.63 821.643C1226.21 821.529 1226.75 821.244 1227.17 820.825C1227.59 820.406 1227.88 819.871 1228 819.289C1228.11 818.707 1228.05 818.103 1227.83 817.554C1227.6 817.005 1227.22 816.536 1226.72 816.206C1226.23 815.876 1225.65 815.699 1225.05 815.699C1224.26 815.699 1223.5 816.014 1222.94 816.574C1222.37 817.134 1222.06 817.894 1222.05 818.688ZM1226.76 818.688C1226.76 819.028 1226.66 819.362 1226.48 819.646C1226.29 819.931 1226.02 820.153 1225.71 820.284C1225.39 820.416 1225.04 820.451 1224.71 820.385C1224.38 820.319 1224.07 820.155 1223.83 819.914C1223.59 819.673 1223.42 819.366 1223.36 819.032C1223.29 818.697 1223.33 818.351 1223.46 818.037C1223.59 817.722 1223.81 817.454 1224.1 817.266C1224.38 817.079 1224.71 816.979 1225.05 816.982C1225.51 816.982 1225.94 817.162 1226.26 817.481C1226.58 817.801 1226.76 818.235 1226.76 818.688Z" fill="#A6D0DD"/>
<g opacity="0.3">
<path d="M1282 724.488C1282 725.082 1282.17 725.663 1282.5 726.158C1282.83 726.653 1283.3 727.04 1283.84 727.268C1284.39 727.497 1285 727.558 1285.58 727.444C1286.16 727.329 1286.7 727.045 1287.12 726.626C1287.54 726.207 1287.82 725.672 1287.94 725.09C1288.06 724.507 1288 723.904 1287.77 723.355C1287.55 722.806 1287.16 722.337 1286.67 722.007C1286.17 721.676 1285.59 721.5 1285 721.5C1284.21 721.5 1283.45 721.815 1282.88 722.375C1282.32 722.935 1282 723.695 1282 724.488ZM1286.71 724.488C1286.71 724.829 1286.61 725.163 1286.42 725.447C1286.23 725.731 1285.97 725.953 1285.65 726.085C1285.34 726.216 1284.99 726.251 1284.66 726.185C1284.32 726.119 1284.01 725.956 1283.77 725.715C1283.53 725.474 1283.37 725.167 1283.3 724.832C1283.24 724.498 1283.27 724.152 1283.4 723.837C1283.54 723.523 1283.76 723.255 1284.04 723.067C1284.33 722.879 1284.66 722.78 1285 722.782C1285.45 722.782 1285.89 722.962 1286.21 723.282C1286.53 723.602 1286.71 724.036 1286.71 724.488Z" fill="#A6D0DD"/>
<path d="M1285 722.5V657.5L1297 644.5V584" stroke="url(#paint7_linear_1_9)"/>
<path d="M1294.01 581.988C1294.01 582.582 1294.18 583.163 1294.51 583.658C1294.84 584.153 1295.31 584.539 1295.85 584.768C1296.4 584.997 1297.01 585.058 1297.59 584.944C1298.17 584.829 1298.71 584.545 1299.13 584.125C1299.55 583.706 1299.83 583.172 1299.95 582.59C1300.07 582.007 1300.01 581.404 1299.78 580.855C1299.56 580.306 1299.17 579.837 1298.68 579.506C1298.18 579.176 1297.6 579 1297.01 579C1296.22 579 1295.46 579.314 1294.89 579.875C1294.33 580.435 1294.01 581.195 1294.01 581.988ZM1298.72 581.988C1298.72 582.329 1298.62 582.663 1298.43 582.947C1298.24 583.231 1297.98 583.453 1297.66 583.585C1297.35 583.716 1297 583.751 1296.67 583.685C1296.33 583.619 1296.02 583.455 1295.78 583.215C1295.54 582.974 1295.38 582.666 1295.31 582.332C1295.25 581.998 1295.28 581.652 1295.41 581.337C1295.55 581.023 1295.77 580.755 1296.05 580.567C1296.34 580.379 1296.67 580.28 1297.01 580.282C1297.46 580.282 1297.9 580.462 1298.22 580.782C1298.54 581.102 1298.72 581.536 1298.72 581.988Z" fill="#9D9A96"/>
</g>
<path opacity="0.4" d="M1481.05 736.199H1344.55L1312.55 704.199V688.199" stroke="url(#paint8_linear_1_9)"/>
<path opacity="0.4" d="M1490.05 746.699H1341.55L1304.55 708.699V679.699" stroke="url(#paint9_linear_1_9)"/>
<g opacity="0.4">
<path d="M1269.05 668.699H1200.55L1165.05 633.699V625.699" stroke="url(#paint10_linear_1_9)"/>
<circle cx="1165.05" cy="622.699" r="2.25" transform="rotate(180 1165.05 622.699)" stroke="#A7D1DE" stroke-width="1.5"/>
<circle cx="1271.05" cy="668.699" r="2.25" transform="rotate(180 1271.05 668.699)" stroke="#9E9C97" stroke-width="1.5"/>
</g>
<circle opacity="0.3" cx="1334.05" cy="658.699" r="3" transform="rotate(180 1334.05 658.699)" fill="#162029"/>
<circle opacity="0.4" cx="1324.05" cy="658.699" r="3" transform="rotate(180 1324.05 658.699)" fill="#162029"/>
<circle opacity="0.3" cx="1314.05" cy="658.699" r="3" transform="rotate(180 1314.05 658.699)" fill="#162029"/>
<circle opacity="0.3" cx="1304.05" cy="658.699" r="3" transform="rotate(180 1304.05 658.699)" fill="#162029"/>
<circle opacity="0.3" cx="1257.05" cy="813.699" r="3" transform="rotate(90 1257.05 813.699)" fill="#162029"/>
<circle opacity="0.4" cx="1257.05" cy="823.699" r="3" transform="rotate(90 1257.05 823.699)" fill="#162029"/>
<circle opacity="0.3" cx="1257.05" cy="833.699" r="3" transform="rotate(90 1257.05 833.699)" fill="#162029"/>
<circle cx="1257.05" cy="843.699" r="3" transform="rotate(90 1257.05 843.699)" fill="#A6D0DD"/>
<g opacity="0.4">
<circle cx="1152" cy="690" r="2.25" transform="rotate(180 1152 690)" stroke="#FF6969" stroke-width="1.5"/>
<circle cx="1152" cy="654" r="2.25" transform="rotate(180 1152 654)" stroke="#FF6969" stroke-width="1.5"/>
<path d="M1152 687.5C1152 661.9 1152 655.5 1152 655.5" stroke="#FF6969"/>
</g>
<g opacity="0.4">
<circle cx="1166" cy="718" r="2.25" transform="rotate(180 1166 718)" stroke="#162029" stroke-width="1.5"/>
<circle cx="1166" cy="682" r="2.25" transform="rotate(180 1166 682)" stroke="#162029" stroke-width="1.5"/>
<path d="M1166 715.5C1166 689.9 1166 683.5 1166 683.5" stroke="#162029"/>
</g>
<g opacity="0.4">
<circle cx="1141" cy="832" r="2.25" transform="rotate(180 1141 832)" stroke="#162029" stroke-width="1.5"/>
<circle cx="1141" cy="788" r="2.25" transform="rotate(180 1141 788)" stroke="#162029" stroke-width="1.5"/>
<path d="M1141 829C1141 797 1141 789 1141 789" stroke="#162029"/>
</g>
<g opacity="0.2">
<circle cx="798" cy="766" r="2.25" transform="rotate(-180 798 766)" stroke="#162029" stroke-width="1.5"/>
<circle cx="798" cy="722" r="2.25" transform="rotate(-180 798 722)" stroke="#162029" stroke-width="1.5"/>
<path d="M798 763C798 731.8 798 724 798 724" stroke="#162029"/>
</g>
<g opacity="0.2">
<circle cx="1226.05" cy="805.699" r="2.25" transform="rotate(180 1226.05 805.699)" stroke="#162029" stroke-width="1.5"/>
<circle cx="1226.05" cy="761.699" r="2.25" transform="rotate(180 1226.05 761.699)" stroke="#162029" stroke-width="1.5"/>
<path d="M1226.05 802.699C1226.05 770.699 1226.05 762.699 1226.05 762.699" stroke="#162029"/>
</g>
<path opacity="0.4" d="M830 849L830 822" stroke="#162029"/>
<path opacity="0.4" d="M815 834L815 807" stroke="#162029"/>
<path opacity="0.4" d="M821 849L821 801" stroke="#162029"/>
<path opacity="0.4" d="M192.054 879.699L192.054 852.699" stroke="#162029"/>
<path opacity="0.4" d="M198.054 894.699L198.054 846.699" stroke="#162029"/>
<path opacity="0.4" d="M912 679L912 664" stroke="url(#paint11_linear_1_9)"/>
<path opacity="0.4" d="M916 679L916 659" stroke="url(#paint12_linear_1_9)"/>
<path opacity="0.4" d="M908 679L908 668" stroke="url(#paint13_linear_1_9)"/>
<g opacity="0.7">
<path d="M932.554 754L932.554 834.5L912.554 855L906.054 855" stroke="url(#paint14_linear_1_9)"/>
<circle cx="904.054" cy="855" r="2.25" transform="rotate(90 904.054 855)" stroke="#ACCAD6" stroke-width="1.5"/>
<circle cx="932.054" cy="752" r="2.25" transform="rotate(90 932.054 752)" stroke="#FD6C6D" stroke-width="1.5"/>
<g opacity="0.4">
<circle cx="961.054" cy="809" r="2.25" transform="rotate(90 961.054 809)" stroke="#162029" stroke-width="1.5"/>
<circle cx="944.054" cy="809" r="2.25" transform="rotate(90 944.054 809)" stroke="#162029" stroke-width="1.5"/>
<path d="M958.054 809C948.454 809 946.054 809 946.054 809" stroke="#162029"/>
</g>
<g opacity="0.4">
<path d="M941.554 733.5L941.554 783L955.054 794L974.054 794" stroke="#162029"/>
<path d="M979.054 793.988C979.057 794.582 978.883 795.163 978.554 795.658C978.226 796.153 977.758 796.54 977.21 796.768C976.662 796.997 976.059 797.058 975.476 796.944C974.893 796.83 974.358 796.545 973.937 796.126C973.516 795.707 973.229 795.172 973.113 794.59C972.996 794.008 973.055 793.404 973.281 792.855C973.508 792.306 973.893 791.837 974.386 791.507C974.88 791.176 975.46 791 976.054 791C976.848 791 977.609 791.315 978.171 791.875C978.734 792.435 979.051 793.195 979.054 793.988ZM974.348 793.988C974.346 794.329 974.445 794.663 974.633 794.947C974.821 795.231 975.089 795.453 975.403 795.585C975.718 795.716 976.064 795.751 976.398 795.685C976.732 795.62 977.04 795.456 977.28 795.215C977.521 794.974 977.685 794.667 977.751 794.332C977.817 793.998 977.782 793.652 977.651 793.337C977.519 793.023 977.297 792.755 977.013 792.567C976.729 792.379 976.395 792.28 976.054 792.283C975.602 792.283 975.168 792.462 974.848 792.782C974.528 793.102 974.348 793.536 974.348 793.988Z" fill="#162029"/>
<path d="M944.054 730.988C944.057 731.582 943.883 732.163 943.554 732.658C943.226 733.153 942.758 733.54 942.21 733.768C941.662 733.997 941.059 734.058 940.476 733.944C939.893 733.83 939.358 733.545 938.937 733.126C938.516 732.707 938.229 732.172 938.113 731.59C937.996 731.008 938.055 730.404 938.281 729.855C938.508 729.306 938.893 728.837 939.386 728.507C939.88 728.176 940.46 728 941.054 728C941.848 728 942.609 728.315 943.171 728.875C943.734 729.435 944.051 730.195 944.054 730.988ZM939.348 730.988C939.346 731.329 939.445 731.663 939.633 731.947C939.821 732.231 940.089 732.453 940.403 732.585C940.718 732.716 941.064 732.751 941.398 732.685C941.732 732.62 942.04 732.456 942.28 732.215C942.521 731.974 942.685 731.667 942.751 731.332C942.817 730.998 942.782 730.652 942.651 730.337C942.519 730.023 942.297 729.755 942.013 729.567C941.729 729.379 941.395 729.28 941.054 729.283C940.602 729.283 940.168 729.462 939.848 729.782C939.528 730.102 939.348 730.536 939.348 730.988Z" fill="#162029"/>
</g>
</g>
<g opacity="0.5">
<path d="M813 680.5L813 781L804 793L792.5 793" stroke="#162029"/>
<path d="M787 792.988C786.998 793.582 787.172 794.163 787.5 794.658C787.828 795.153 788.296 795.54 788.844 795.768C789.392 795.997 789.995 796.058 790.578 795.944C791.161 795.83 791.696 795.545 792.117 795.126C792.538 794.707 792.825 794.172 792.941 793.59C793.058 793.008 792.999 792.404 792.773 791.855C792.546 791.306 792.162 790.837 791.668 790.507C791.174 790.176 790.594 790 790 790C789.206 790 788.445 790.315 787.883 790.875C787.321 791.435 787.003 792.195 787 792.988ZM791.706 792.988C791.708 793.329 791.609 793.663 791.421 793.947C791.233 794.231 790.965 794.453 790.651 794.585C790.337 794.716 789.99 794.751 789.656 794.685C789.322 794.62 789.015 794.456 788.774 794.215C788.533 793.974 788.369 793.667 788.303 793.332C788.237 792.998 788.272 792.652 788.404 792.337C788.535 792.023 788.757 791.755 789.041 791.567C789.326 791.379 789.659 791.28 790 791.283C790.452 791.283 790.886 791.462 791.206 791.782C791.526 792.102 791.706 792.536 791.706 792.988Z" fill="#162029"/>
<path d="M810 677.988C809.998 678.582 810.172 679.163 810.5 679.658C810.828 680.153 811.296 680.54 811.844 680.768C812.392 680.997 812.995 681.058 813.578 680.944C814.161 680.83 814.696 680.545 815.117 680.126C815.538 679.707 815.825 679.172 815.941 678.59C816.058 678.008 815.999 677.404 815.773 676.855C815.546 676.306 815.162 675.837 814.668 675.507C814.174 675.176 813.594 675 813 675C812.206 675 811.445 675.315 810.883 675.875C810.321 676.435 810.003 677.195 810 677.988ZM814.706 677.988C814.708 678.329 814.609 678.663 814.421 678.947C814.233 679.231 813.965 679.453 813.651 679.585C813.337 679.716 812.99 679.751 812.656 679.685C812.322 679.62 812.015 679.456 811.774 679.215C811.533 678.974 811.369 678.667 811.303 678.332C811.237 677.998 811.272 677.652 811.404 677.337C811.535 677.023 811.757 676.755 812.041 676.567C812.326 676.379 812.659 676.28 813 676.283C813.452 676.283 813.886 676.462 814.206 676.782C814.526 677.102 814.706 677.536 814.706 677.988Z" fill="#162029"/>
</g>
<g opacity="0.2">
<circle cx="1047.6" cy="721.06" r="2.25" stroke="#162029" stroke-width="1.5"/>
<circle cx="1047.6" cy="738.06" r="2.25" stroke="#162029" stroke-width="1.5"/>
<path d="M1047.6 724.06C1047.6 733.66 1047.6 736.06 1047.6 736.06" stroke="#162029"/>
</g>
<g opacity="0.4">
<path d="M719.605 925.569L714.026 919.99V912.098L714.019 904.2L714.026 896.301V888.41L714.019 880.512L714.026 872.613V864.722V856.831L714.019 848.932L714.019 841.041V833.15L708.44 827.571L702.853 821.984L697.267 816.398L691.688 810.819L686.109 805.24L686.109 797.335L686.109 789.443L686.109 781.552L686.116 773.654L686.116 765.762L686.109 757.864V749.973L686.109 742.081L686.109 734.176L686.109 726.285L686.109 718.393L686.109 710.502L686.116 702.604L686.109 694.705L691.688 689.126L697.274 683.54L702.853 677.961L708.44 672.375L714.019 666.796L719.605 672.382" stroke="#162029" stroke-linecap="round" stroke-linejoin="round"/>
<path d="M720.184 676.258C719.748 676.171 719.347 675.956 719.032 675.642C718.61 675.22 718.373 674.647 718.373 674.051C718.373 673.454 718.61 672.882 719.032 672.46C719.347 672.145 719.748 671.931 720.184 671.844C720.62 671.757 721.073 671.802 721.484 671.972C721.895 672.142 722.247 672.431 722.494 672.801C722.741 673.171 722.873 673.606 722.873 674.051C722.873 674.496 722.741 674.931 722.494 675.301C722.247 675.671 721.895 675.959 721.484 676.129L721.771 676.822L721.484 676.129C721.073 676.3 720.62 676.344 720.184 676.258Z" stroke="#162029" stroke-width="1.5"/>
</g>
<g opacity="0.4">
<path d="M1081.05 857.7C1034.65 857.7 1023.05 857.7 1023.05 857.7" stroke="#162029"/>
<circle cx="3" cy="3" r="2.25" transform="matrix(-4.37114e-08 -1 -1 4.37114e-08 1086.05 860.7)" stroke="#162029" stroke-width="1.5"/>
<circle cx="3" cy="3" r="2.25" transform="matrix(-4.37114e-08 -1 -1 4.37114e-08 1024.05 860.7)" stroke="#162029" stroke-width="1.5"/>
</g>
<g opacity="0.4">
<path d="M1097.05 843.979L1091.46 849.559L1083.57 849.559L1075.67 849.559L1067.78 849.559L1059.88 849.559L1051.99 849.559L1044.09 849.559L1036.2 849.559L1028.3 849.559L1020.41 849.559L1012.51 849.559L1004.62 849.559L996.734 849.559L988.834 849.559L983.254 855.139L977.674 860.719L972.084 866.309L966.504 871.889L960.924 877.469L955.344 883.049L949.754 888.639L944.174 894.219L938.594 899.799L933.014 905.379L927.434 910.959L921.844 916.539L913.954 916.539L906.054 916.539L898.164 916.539L890.264 916.539L882.374 916.539L874.484 916.539L868.894 922.129" stroke="#162029" stroke-linecap="round" stroke-linejoin="round"/>
<path d="M1096.84 841.294C1096.92 840.86 1097.13 840.459 1097.43 840.141C1097.64 839.922 1097.89 839.748 1098.17 839.63C1098.45 839.511 1098.75 839.45 1099.05 839.45C1099.36 839.45 1099.66 839.511 1099.94 839.63C1100.21 839.748 1100.47 839.922 1100.68 840.141C1100.98 840.459 1101.19 840.86 1101.27 841.294C1101.35 841.728 1101.3 842.176 1101.12 842.581C1100.95 842.987 1100.66 843.333 1100.29 843.577C1099.93 843.82 1099.5 843.95 1099.05 843.95C1098.61 843.95 1098.18 843.82 1097.81 843.577C1097.45 843.333 1097.16 842.987 1096.98 842.581C1096.81 842.176 1096.76 841.728 1096.84 841.294Z" stroke="#162029" stroke-width="1.5"/>
</g>
<g opacity="0.3">
<path d="M1037.6 723.06C1037.6 769.46 1037.6 781.06 1037.6 781.06" stroke="#162029"/>
<circle cx="3" cy="3" r="2.25" transform="matrix(-1 0 0 1 1040.6 718.06)" stroke="#162029" stroke-width="1.5"/>
<circle cx="3" cy="3" r="2.25" transform="matrix(-1 0 0 1 1040.6 780.06)" stroke="#162029" stroke-width="1.5"/>
</g>
<g opacity="0.3">
<path d="M1047.6 752.06C1047.6 798.46 1047.6 810.06 1047.6 810.06" stroke="#162029"/>
<circle cx="3" cy="3" r="2.25" transform="matrix(-1 0 0 1 1050.6 747.06)" stroke="#162029" stroke-width="1.5"/>
<circle cx="3" cy="3" r="2.25" transform="matrix(-1 0 0 1 1050.6 809.06)" stroke="#162029" stroke-width="1.5"/>
</g>
<g opacity="0.2">
<path d="M1316.4 787.042C1370.8 841.442 1384.4 855.042 1384.4 855.042" stroke="#162029"/>
<circle cx="3" cy="3" r="2.25" transform="matrix(-0.707107 0.707107 0.707107 0.707107 1314.81 781.214)" stroke="#162029" stroke-width="1.5"/>
<circle cx="3" cy="3" r="2.25" transform="matrix(-0.707107 0.707107 0.707107 0.707107 1385.81 852.214)" stroke="#162029" stroke-width="1.5"/>
</g>
<g opacity="0.4">
<path d="M911.324 827.697L864.655 781.028L864.655 693.347" stroke="black"/>
<circle cx="864.301" cy="690.872" r="2.25" transform="rotate(-45 864.301 690.872)" stroke="#162029" stroke-width="1.5"/>
<circle cx="913.091" cy="828.758" r="2.25" transform="rotate(-45 913.091 828.758)" stroke="#162029" stroke-width="1.5"/>
</g>
<g opacity="0.3">
<path d="M1306.23 775.951C1295.83 765.551 1293.23 762.951 1293.23 762.951" stroke="#162029"/>
<circle cx="3" cy="3" r="2.25" transform="matrix(0.707107 -0.707107 -0.707107 -0.707107 1307.81 781.62)" stroke="#162029" stroke-width="1.5"/>
<circle cx="3" cy="3" r="2.25" transform="matrix(0.707107 -0.707107 -0.707107 -0.707107 1291.81 765.7)" stroke="#162029" stroke-width="1.5"/>
</g>
<g opacity="0.3">
<path d="M796 696.571C796 682.171 796 678.571 796 678.571" stroke="#162029"/>
<circle cx="3" cy="3" r="2.25" transform="matrix(1 8.74228e-08 8.74228e-08 -1 793.056 701.571)" stroke="#162029" stroke-width="1.5"/>
<circle cx="3" cy="3" r="2.25" transform="matrix(1 8.74228e-08 8.74228e-08 -1 793 680)" stroke="#162029" stroke-width="1.5"/>
</g>
<g opacity="0.3">
<path d="M1380.23 834.011C1351.43 805.211 1344.23 798.011 1344.23 798.011" stroke="#162029"/>
<circle cx="3" cy="3" r="2.25" transform="matrix(0.707107 -0.707107 -0.707107 -0.707107 1381.81 839.68)" stroke="#162029" stroke-width="1.5"/>
<circle cx="3" cy="3" r="2.25" transform="matrix(0.707107 -0.707107 -0.707107 -0.707107 1342.81 800.719)" stroke="#162029" stroke-width="1.5"/>
</g>
<g opacity="0.5">
<path d="M1533.05 919.699L1527.47 914.119L1521.89 908.539L1516.3 902.949L1510.72 897.369L1505.14 891.789L1499.56 886.209L1493.98 880.629L1488.39 875.039L1482.81 869.459L1474.92 869.459L1467.02 869.459L1459.13 869.459L1451.23 869.459L1443.34 869.459L1435.44 869.459L1427.55 869.459L1419.65 869.459L1411.76 869.459L1403.86 869.459L1395.97 869.459L1388.07 869.459L1380.18 869.459L1372.29 869.459L1364.39 869.459L1356.5 869.459L1348.6 869.459L1343.02 863.879L1337.44 858.299L1331.85 852.709L1326.27 847.129L1320.69 841.549L1315.11 835.969L1309.53 830.389L1303.94 824.799L1298.36 819.219L1292.78 813.639L1287.19 808.049L1281.61 802.469L1276.03 796.889L1270.45 791.309L1264.86 785.719L1259.28 780.139L1253.7 774.559L1253.7 766.669L1253.7 758.769L1253.7 745.199" stroke="#162029" stroke-linecap="round" stroke-linejoin="round"/>
<path d="M1251.8 741.432C1252.15 741.082 1252.59 740.844 1253.08 740.747C1253.56 740.651 1254.06 740.7 1254.52 740.89C1254.97 741.079 1255.36 741.399 1255.63 741.81C1255.91 742.221 1256.05 742.705 1256.05 743.199C1256.05 743.694 1255.91 744.177 1255.63 744.588C1255.36 745 1254.97 745.32 1254.52 745.509C1254.06 745.698 1253.56 745.748 1253.08 745.651C1252.59 745.555 1252.15 745.316 1251.8 744.967C1251.56 744.737 1251.38 744.462 1251.25 744.159C1251.12 743.855 1251.05 743.529 1251.05 743.199C1251.05 742.87 1251.12 742.544 1251.25 742.24C1251.38 741.936 1251.56 741.662 1251.8 741.432Z" fill="#162029"/>
</g>
<g opacity="0.3">
<path d="M1161.47 1102.7L1161.47 1094.81L1161.47 1086.92L1161.47 1079.03L1161.46 1071.13L1161.47 1063.23V1055.34L1161.47 1047.45L1161.47 1039.55L1161.47 1031.65L1161.47 1023.76L1161.47 1015.87L1161.46 1007.97L1161.47 1000.07L1161.47 992.179L1167.05 986.6L1172.63 981.013L1178.21 975.434L1183.8 969.848L1189.38 964.269L1194.96 958.683L1200.54 953.104V945.213L1194.95 939.626L1189.38 934.047L1183.8 928.468L1183.79 920.57L1183.8 912.672L1183.8 904.78L1183.79 896.882L1178.21 891.303L1172.62 885.717L1167.05 880.138L1161.47 874.558L1155.88 868.972L1155.89 796.272L1155.89 788.38L1155.88 780.482L1155.88 772.591L1155.88 764.699" stroke="#162029" stroke-linecap="round" stroke-linejoin="round"/>
<path d="M1158.4 763.132C1158.4 762.634 1158.25 762.146 1157.97 761.731C1157.7 761.316 1157.3 760.993 1156.84 760.802C1156.38 760.611 1155.88 760.561 1155.39 760.658C1154.9 760.755 1154.45 760.995 1154.1 761.348C1153.74 761.7 1153.5 762.15 1153.41 762.639C1153.31 763.128 1153.36 763.635 1153.55 764.095C1153.74 764.556 1154.06 764.949 1154.48 765.226C1154.89 765.503 1155.38 765.65 1155.88 765.65C1156.21 765.652 1156.54 765.588 1156.85 765.463C1157.15 765.337 1157.43 765.152 1157.67 764.917C1157.9 764.683 1158.08 764.405 1158.21 764.098C1158.34 763.792 1158.4 763.463 1158.4 763.132Z" fill="#162029"/>
</g>
<g opacity="0.3">
<path d="M1260.89 604.434L1255.3 610.014L1249.72 615.594L1244.14 621.174L1238.56 626.754L1232.98 632.344L1227.39 637.924L1221.81 643.504L1216.23 649.084L1210.64 654.674L1205.06 660.254L1199.48 665.834L1193.9 671.414L1188.32 677.004L1182.74 682.584L1182.74 690.474L1182.74 698.374L1182.74 706.264L1182.74 714.164L1182.74 722.054L1188.32 727.634L1188.32 735.534L1188.32 743.424L1188.32 751.324L1188.32 759.214L1188.32 767.114L1188.32 775.004L1188.32 782.904L1188.32 790.794L1188.32 798.694L1188.32 806.584L1193.9 812.164L1199.48 817.754L1205.06 823.334L1205.06 831.224L1205.06 839.124L1205.06 847.014L1205.06 854.914L1205.06 862.804L1205.06 870.704L1199.48 876.284L1193.9 881.864L1188.32 887.444L1182.74 893.034L1177.15 898.614L1171.57 904.194L1165.99 909.774L1160.41 915.354L1154.82 920.944L1149.24 926.524L1143.66 932.104L1138.07 937.684L1132.49 943.274L1126.91 948.854L1121.33 954.434L1115.75 960.014L1110.16 965.594L1104.58 971.184L1096.68 971.184L1088.79 971.184L1080.9 971.184L1073 971.184L1065.11 971.184L1057.21 971.184L1049.32 971.184L1041.42 971.184L1033.53 971.184L1025.63 971.184L1017.74 971.184L1012.16 976.764" stroke="#162029" stroke-linecap="round" stroke-linejoin="round"/>
</g>
<g opacity="0.2">
<path d="M1495.23 800.57L1495.23 792.68L1495.23 784.79L1495.23 776.89L1495.23 769L1495.23 761.1L1495.23 753.2L1495.23 745.31L1495.23 737.42L1495.23 729.52L1495.23 721.63L1495.23 713.73L1489.64 708.15L1484.06 702.57L1478.48 696.98L1472.89 691.4L1467.31 685.82L1461.73 680.24L1456.15 674.66L1450.57 669.08L1444.98 663.49L1439.4 657.91L1433.82 652.33L1428.24 646.74L1422.65 641.16L1417.07 635.58L1411.49 630L1405.91 624.41L1400.32 618.83L1394.74 613.25L1394.74 605.36L1394.74 597.46L1394.74 589.57L1394.74 581.67L1394.74 573.78L1389.16 568.19L1383.58 562.61L1378 557.03L1372.41 551.45L1366.83 545.87L1361.25 540.28L1355.66 534.7L1350.08 529.12L1344.5 523.54L1338.92 517.95" stroke="#162029" stroke-linecap="round" stroke-linejoin="round"/>
<path d="M1341.14 515.881C1340.72 515.461 1340.18 515.174 1339.6 515.058C1339.01 514.942 1338.41 515.001 1337.86 515.228C1337.31 515.455 1336.84 515.839 1336.51 516.333C1336.18 516.826 1336 517.406 1336 518C1336 518.594 1336.18 519.174 1336.51 519.667C1336.84 520.161 1337.31 520.545 1337.86 520.772C1338.41 520.999 1339.01 521.058 1339.6 520.942C1340.18 520.826 1340.72 520.539 1341.14 520.119C1341.69 519.552 1342 518.792 1342 518C1342 517.208 1341.69 516.448 1341.14 515.881Z" fill="#162029"/>
</g>
<g opacity="0.3">
<path d="M1398.05 994.2L1327.55 923.7V873.2L1259.05 804.2" stroke="black"/>
<path d="M1256.6 804.906C1256.17 804.819 1255.77 804.605 1255.45 804.291C1255.04 803.864 1254.8 803.294 1254.8 802.7C1254.8 802.106 1255.04 801.535 1255.45 801.108C1255.77 800.794 1256.17 800.58 1256.6 800.493C1257.04 800.406 1257.5 800.45 1257.91 800.621C1258.32 800.791 1258.68 801.08 1258.92 801.45C1259.17 801.82 1259.3 802.255 1259.3 802.7C1259.3 803.144 1259.17 803.579 1258.92 803.949C1258.68 804.319 1258.32 804.608 1257.91 804.779C1257.5 804.949 1257.04 804.993 1256.6 804.906Z" stroke="#162029" stroke-width="1.5"/>
</g>
<g opacity="0.3">
<path d="M852.294 649L852.294 683.127L852.294 691.018L852.294 698.91L852.287 706.808L852.294 714.706L852.294 722.598L852.294 730.489L852.294 738.38L852.294 746.286L852.294 754.177L852.294 762.068L852.287 769.967L852.294 777.865L852.294 785.757L857.873 791.336L863.459 796.922L869.039 802.501L874.625 808.087L880.204 813.666L885.79 819.252L891.369 824.831L891.369 832.723L885.783 838.309L880.204 843.888L874.625 849.467L874.618 857.365L874.625 865.264L874.625 873.155L874.618 881.053L869.039 886.632L863.452 892.219L857.873 897.798L852.294 903.377L846.708 908.963L846.715 916.861L846.715 924.753L846.708 932.651L846.708 940.542L846.708 948.434" stroke="#162029" stroke-linecap="round" stroke-linejoin="round"/>
</g>
<g opacity="0.2">
<path d="M771.539 883L771.539 875.1L771.539 867.21L771.539 859.32L765.959 853.74L760.379 848.15L754.789 842.57L749.209 836.99L743.629 831.4L743.629 823.51L743.629 815.61L743.629 807.72L743.629 799.83L743.629 791.93L743.629 784.04L743.629 776.14L743.629 768.24L743.629 760.35L743.629 752.46" stroke="#162029" stroke-linecap="round" stroke-linejoin="round"/>
<path d="M744.06 747.751C744.645 747.735 745.213 747.94 745.653 748.325C746.071 748.763 746.304 749.345 746.304 749.951C746.304 750.562 746.067 751.149 745.642 751.588C745.203 752.012 744.616 752.25 744.005 752.25C743.399 752.25 742.817 752.017 742.379 751.599C741.994 751.159 741.789 750.591 741.805 750.006C741.821 749.413 742.064 748.849 742.484 748.43C742.903 748.01 743.467 747.767 744.06 747.751Z" stroke="#162029" stroke-width="1.5"/>
</g>
<g opacity="0.2">
<path d="M1033.6 898.06V890.16V882.27V874.37V866.48V858.58V850.69V842.79V834.9V827V819.11V811.21V803.32L1028.02 797.74V789.84V781.95V774.05V766.16V758.26V750.37V742.47V734.58V726.69V718.79V710.9V703" stroke="#162029" stroke-linecap="round" stroke-linejoin="round"/>
<path d="M1031 703C1031 702.407 1030.82 701.827 1030.49 701.334C1030.16 700.84 1029.7 700.456 1029.15 700.229C1028.6 700.002 1028 699.942 1027.41 700.058C1026.83 700.174 1026.3 700.459 1025.88 700.879C1025.46 701.298 1025.17 701.833 1025.06 702.415C1024.94 702.997 1025 703.6 1025.23 704.148C1025.46 704.696 1025.84 705.165 1026.33 705.495C1026.83 705.824 1027.41 706 1028 706C1028.8 706 1029.56 705.684 1030.12 705.122C1030.68 704.559 1031 703.796 1031 703Z" fill="#162029"/>
</g>
<g opacity="0.2">
<path d="M445.58 927.765L440 922.175V914.275V906.385V898.485V890.595V882.705V874.805L445.58 869.225L451.16 863.645L456.75 858.055L462.33 852.475L467.91 846.895L473.49 841.315L479.08 835.725L484.66 830.145L490.24 824.565L495.83 818.985L501.41 813.405L506.99 807.825L512.57 802.235L518.15 796.655L523.73 791.075L529.32 785.485L534.9 779.905L540.48 774.325L546.07 768.745V760.845V752.955V745.055V737.165V729.265V721.375V713.475V705.585V697.695L540.48 692.105L534.9 686.525L529.32 680.945L523.73 675.365L518.15 669.775L512.57 664.195" stroke="#162029" stroke-width="1.11" stroke-linecap="round" stroke-linejoin="round"/>
<path d="M506.642 661.814C506.765 662.433 507.07 663.002 507.517 663.448C508.115 664.044 508.925 664.38 509.77 664.38C510.615 664.38 511.426 664.044 512.024 663.448C512.47 663.002 512.775 662.433 512.898 661.814C513.022 661.195 512.959 660.554 512.718 659.97C512.477 659.387 512.068 658.889 511.543 658.538C511.018 658.187 510.401 658 509.77 658C509.139 658 508.522 658.187 507.997 658.538C507.472 658.889 507.064 659.387 506.822 659.97C506.581 660.554 506.518 661.195 506.642 661.814Z" stroke="#162029" stroke-width="2"/>
</g>
</g>
</g>
<path d="M133 43.5L213.5 43.5L234 23.5V17" stroke="url(#paint15_linear_1_9)"/>
<circle cx="3" cy="3" r="2.25" transform="matrix(1 0 0 -1 231 18)" stroke="#B5C6D0" stroke-width="1.5"/>
<circle cx="3" cy="3" r="2.25" transform="matrix(1 0 0 -1 128 46)" stroke="#D0C7BE" stroke-width="1.5"/>
<g opacity="0.6">
<path d="M582 541.5L501.5 541.5L481 521.5V515" stroke="url(#paint16_linear_1_9)"/>
<circle cx="481" cy="513" r="2.25" transform="rotate(-180 481 513)" stroke="#B5C6D0" stroke-width="1.5"/>
<circle cx="584" cy="541" r="2.25" transform="rotate(-180 584 541)" stroke="#D0C7BE" stroke-width="1.5"/>
</g>
<g opacity="0.3">
<circle cx="139" cy="280" r="2.25" stroke="#162029" stroke-width="1.5"/>
<circle cx="139" cy="297" r="2.25" stroke="#162029" stroke-width="1.5"/>
<path d="M139 283C139 292.6 139 295 139 295" stroke="black"/>
</g>
<g opacity="0.2">
<path d="M1321.5 477.5L1272 477.5L1261 491L1261 510" stroke="#162029"/>
<path d="M1261.01 515C1260.42 515.002 1259.84 514.828 1259.34 514.5C1258.85 514.172 1258.46 513.704 1258.23 513.156C1258 512.608 1257.94 512.005 1258.06 511.422C1258.17 510.839 1258.46 510.304 1258.87 509.883C1259.29 509.462 1259.83 509.175 1260.41 509.059C1260.99 508.942 1261.6 509.001 1262.15 509.227C1262.69 509.454 1263.16 509.838 1263.49 510.332C1263.82 510.826 1264 511.406 1264 512C1264 512.794 1263.69 513.555 1263.13 514.117C1262.57 514.679 1261.81 514.997 1261.01 515ZM1261.01 510.294C1260.67 510.292 1260.34 510.391 1260.05 510.579C1259.77 510.767 1259.55 511.035 1259.42 511.349C1259.28 511.663 1259.25 512.01 1259.31 512.344C1259.38 512.678 1259.54 512.985 1259.79 513.226C1260.03 513.467 1260.33 513.631 1260.67 513.697C1261 513.763 1261.35 513.728 1261.66 513.596C1261.98 513.465 1262.25 513.243 1262.43 512.959C1262.62 512.674 1262.72 512.341 1262.72 512C1262.72 511.548 1262.54 511.114 1262.22 510.794C1261.9 510.474 1261.46 510.294 1261.01 510.294Z" fill="black"/>
<path d="M1324.01 480C1323.42 480.002 1322.84 479.828 1322.34 479.5C1321.85 479.172 1321.46 478.704 1321.23 478.156C1321 477.608 1320.94 477.005 1321.06 476.422C1321.17 475.839 1321.46 475.304 1321.87 474.883C1322.29 474.462 1322.83 474.175 1323.41 474.059C1323.99 473.942 1324.6 474.001 1325.15 474.227C1325.69 474.454 1326.16 474.838 1326.49 475.332C1326.82 475.826 1327 476.406 1327 477C1327 477.794 1326.69 478.555 1326.13 479.117C1325.57 479.679 1324.81 479.997 1324.01 480ZM1324.01 475.294C1323.67 475.292 1323.34 475.391 1323.05 475.579C1322.77 475.767 1322.55 476.035 1322.42 476.349C1322.28 476.663 1322.25 477.01 1322.31 477.344C1322.38 477.678 1322.54 477.985 1322.79 478.226C1323.03 478.467 1323.33 478.631 1323.67 478.697C1324 478.763 1324.35 478.728 1324.66 478.596C1324.98 478.465 1325.25 478.243 1325.43 477.959C1325.62 477.674 1325.72 477.341 1325.72 477C1325.72 476.548 1325.54 476.114 1325.22 475.794C1324.9 475.474 1324.46 475.294 1324.01 475.294Z" fill="black"/>
</g>
<path d="M964.5 418.5L995.5 418.5L1010.5 406L1045 406" stroke="#A6D0DD"/>
<path d="M1047.01 403C1046.42 402.998 1045.84 403.172 1045.34 403.5C1044.85 403.828 1044.46 404.296 1044.23 404.844C1044 405.392 1043.94 405.995 1044.06 406.578C1044.17 407.161 1044.46 407.696 1044.87 408.117C1045.29 408.538 1045.83 408.825 1046.41 408.941C1046.99 409.058 1047.6 408.999 1048.15 408.773C1048.69 408.546 1049.16 408.162 1049.49 407.668C1049.82 407.174 1050 406.594 1050 406C1050 405.206 1049.69 404.445 1049.13 403.883C1048.57 403.321 1047.81 403.003 1047.01 403ZM1047.01 407.706C1046.67 407.708 1046.34 407.609 1046.05 407.421C1045.77 407.233 1045.55 406.965 1045.42 406.651C1045.28 406.337 1045.25 405.99 1045.31 405.656C1045.38 405.322 1045.54 405.015 1045.79 404.774C1046.03 404.533 1046.33 404.369 1046.67 404.303C1047 404.237 1047.35 404.272 1047.66 404.404C1047.98 404.535 1048.25 404.757 1048.43 405.041C1048.62 405.326 1048.72 405.659 1048.72 406C1048.72 406.452 1048.54 406.886 1048.22 407.206C1047.9 407.526 1047.46 407.706 1047.01 407.706Z" fill="#A6D0DD"/>
<path d="M962.012 415C961.418 414.998 960.837 415.172 960.342 415.5C959.847 415.828 959.461 416.296 959.232 416.844C959.003 417.392 958.942 417.995 959.056 418.578C959.171 419.161 959.455 419.696 959.875 420.117C960.294 420.538 960.828 420.825 961.41 420.941C961.993 421.058 962.596 420.999 963.145 420.773C963.694 420.546 964.163 420.162 964.494 419.668C964.824 419.174 965 418.594 965 418C965 417.206 964.686 416.445 964.125 415.883C963.565 415.321 962.805 415.003 962.012 415ZM962.012 419.706C961.671 419.708 961.337 419.609 961.053 419.421C960.769 419.233 960.547 418.965 960.415 418.651C960.284 418.337 960.249 417.99 960.315 417.656C960.381 417.322 960.545 417.015 960.785 416.774C961.026 416.533 961.334 416.369 961.668 416.303C962.002 416.237 962.348 416.272 962.663 416.404C962.977 416.535 963.245 416.757 963.433 417.041C963.621 417.326 963.72 417.659 963.718 418C963.718 418.452 963.538 418.886 963.218 419.206C962.898 419.526 962.464 419.706 962.012 419.706Z" fill="#A6D0DD"/>
<path d="M1079.3 530.715L1079.3 502.175L1090.81 488.365V456.603" stroke="#A6D0DD"/>
<path d="M1093.57 454.751C1093.57 455.298 1093.41 455.833 1093.11 456.288C1092.81 456.744 1092.38 457.1 1091.87 457.31C1091.37 457.521 1090.81 457.577 1090.28 457.472C1089.74 457.367 1089.25 457.105 1088.86 456.719C1088.47 456.333 1088.21 455.841 1088.1 455.305C1087.99 454.769 1088.05 454.213 1088.26 453.707C1088.47 453.202 1088.82 452.77 1089.27 452.466C1089.73 452.162 1090.26 452 1090.81 452C1091.54 452 1092.24 452.289 1092.76 452.805C1093.28 453.321 1093.57 454.02 1093.57 454.751ZM1089.24 454.751C1089.24 455.065 1089.33 455.372 1089.5 455.634C1089.67 455.895 1089.92 456.1 1090.21 456.221C1090.5 456.342 1090.82 456.374 1091.13 456.313C1091.43 456.253 1091.72 456.102 1091.94 455.88C1092.16 455.658 1092.31 455.375 1092.37 455.068C1092.43 454.76 1092.4 454.441 1092.28 454.152C1092.16 453.862 1091.95 453.615 1091.69 453.443C1091.43 453.27 1091.12 453.178 1090.81 453.181C1090.39 453.181 1089.99 453.346 1089.7 453.641C1089.4 453.935 1089.24 454.335 1089.24 454.751Z" fill="#A6D0DD"/>
<path d="M1082.52 533.005C1082.53 533.552 1082.37 534.087 1082.06 534.543C1081.76 534.998 1081.33 535.354 1080.83 535.565C1080.32 535.775 1079.77 535.832 1079.23 535.726C1078.69 535.621 1078.2 535.359 1077.81 534.973C1077.43 534.587 1077.16 534.095 1077.05 533.559C1076.95 533.023 1077 532.467 1077.21 531.962C1077.42 531.456 1077.77 531.024 1078.23 530.72C1078.68 530.417 1079.22 530.254 1079.76 530.254C1080.49 530.254 1081.19 530.544 1081.71 531.059C1082.23 531.575 1082.52 532.275 1082.52 533.005ZM1078.19 533.005C1078.19 533.319 1078.28 533.626 1078.45 533.888C1078.63 534.15 1078.87 534.354 1079.16 534.475C1079.45 534.596 1079.77 534.628 1080.08 534.568C1080.39 534.507 1080.67 534.356 1080.89 534.134C1081.11 533.912 1081.26 533.63 1081.32 533.322C1081.38 533.014 1081.35 532.695 1081.23 532.406C1081.11 532.117 1080.91 531.87 1080.64 531.697C1080.38 531.524 1080.08 531.433 1079.76 531.435C1079.35 531.435 1078.95 531.6 1078.65 531.895C1078.36 532.189 1078.19 532.589 1078.19 533.005Z" fill="#A6D0DD"/>
<circle opacity="0.2" cx="562" cy="73" r="4" fill="#162029"/>
<circle opacity="0.3" cx="1382" cy="145" r="4" fill="#162029"/>
<circle opacity="0.4" cx="212" cy="507" r="4" fill="#FF6969"/>
<circle opacity="0.3" cx="1214" cy="292" r="3" fill="#162029"/>
<circle opacity="0.4" cx="1224" cy="292" r="3" fill="#162029"/>
<circle opacity="0.3" cx="1234" cy="292" r="3" fill="#162029"/>
<circle cx="1244" cy="292" r="3" fill="#A6D0DD"/>
<g opacity="0.4">
<circle cx="120" cy="132" r="2.25" transform="rotate(90 120 132)" stroke="#FF6969" stroke-width="1.5"/>
<circle cx="84" cy="132" r="2.25" transform="rotate(90 84 132)" stroke="#FF6969" stroke-width="1.5"/>
<path d="M117.5 132C91.9 132 85.5 132 85.5 132" stroke="#FF6969"/>
</g>
<g opacity="0.4">
<circle cx="92" cy="142" r="2.25" transform="rotate(90 92 142)" stroke="#162029" stroke-width="1.5"/>
<circle cx="48" cy="142" r="2.25" transform="rotate(90 48 142)" stroke="#162029" stroke-width="1.5"/>
<path d="M89 142C57 142 49 142 49 142" stroke="#162029"/>
</g>
<g opacity="0.4">
<circle cx="901" cy="614" r="2.25" transform="rotate(90 901 614)" stroke="#162029" stroke-width="1.5"/>
<circle cx="857" cy="614" r="2.25" transform="rotate(90 857 614)" stroke="#162029" stroke-width="1.5"/>
<path d="M898 614C866 614 858 614 858 614" stroke="#162029"/>
</g>
<g opacity="0.3">
<circle cx="1319" cy="3" r="2.25" stroke="#FF6969" stroke-width="1.5"/>
<circle cx="1319" cy="39" r="2.25" stroke="#FF6969" stroke-width="1.5"/>
<path d="M1319 5.5C1319 31.1 1319 37.5 1319 37.5" stroke="#FF6969"/>
</g>
<g opacity="0.2">
<circle cx="1307" cy="11" r="2.25" stroke="#162029" stroke-width="1.5"/>
<circle cx="1307" cy="47" r="2.25" stroke="#162029" stroke-width="1.5"/>
<path d="M1307 13.5C1307 39.1 1307 45.5 1307 45.5" stroke="#162029"/>
</g>
<g opacity="0.3">
<circle cx="1295" cy="3" r="2.25" stroke="#162029" stroke-width="1.5"/>
<circle cx="1295" cy="47" r="2.25" stroke="#162029" stroke-width="1.5"/>
<path d="M1295 6C1295 38 1295 46 1295 46" stroke="#162029"/>
</g>
<g opacity="0.4">
<path d="M1375.5 462L1375.5 381.5L1355.5 361L1349 361" stroke="url(#paint17_linear_1_9)"/>
<circle cx="3" cy="3" r="2.25" transform="matrix(4.37114e-08 -1 -1 -4.37114e-08 1350 364)" stroke="#ACCAD6" stroke-width="1.5"/>
<circle cx="3" cy="3" r="2.25" transform="matrix(4.37114e-08 -1 -1 -4.37114e-08 1378 467)" stroke="#FD6C6D" stroke-width="1.5"/>
<g opacity="0.4">
<circle cx="3" cy="3" r="2.25" transform="matrix(4.37114e-08 -1 -1 -4.37114e-08 1407 410)" stroke="#162029" stroke-width="1.5"/>
<circle cx="3" cy="3" r="2.25" transform="matrix(4.37114e-08 -1 -1 -4.37114e-08 1390 410)" stroke="#162029" stroke-width="1.5"/>
<path d="M1401 407C1391.4 407 1389 407 1389 407" stroke="#162029"/>
</g>
<g opacity="0.4">
<path d="M1384.5 482.5L1384.5 433L1398 422L1417 422" stroke="#162029"/>
<path d="M1422 422.012C1422 421.418 1421.83 420.837 1421.5 420.342C1421.17 419.847 1420.7 419.461 1420.16 419.232C1419.61 419.003 1419 418.942 1418.42 419.056C1417.84 419.171 1417.3 419.455 1416.88 419.875C1416.46 420.294 1416.18 420.828 1416.06 421.41C1415.94 421.993 1416 422.596 1416.23 423.145C1416.45 423.694 1416.84 424.163 1417.33 424.494C1417.83 424.824 1418.41 425 1419 425C1419.79 425 1420.55 424.686 1421.12 424.125C1421.68 423.565 1422 422.805 1422 422.012ZM1417.29 422.012C1417.29 421.671 1417.39 421.337 1417.58 421.053C1417.77 420.769 1418.03 420.547 1418.35 420.415C1418.66 420.284 1419.01 420.249 1419.34 420.315C1419.68 420.381 1419.99 420.545 1420.23 420.785C1420.47 421.026 1420.63 421.334 1420.7 421.668C1420.76 422.002 1420.73 422.348 1420.6 422.663C1420.46 422.977 1420.24 423.245 1419.96 423.433C1419.67 423.621 1419.34 423.72 1419 423.718C1418.55 423.718 1418.11 423.538 1417.79 423.218C1417.47 422.898 1417.29 422.464 1417.29 422.012Z" fill="#162029"/>
<path d="M1387 485.012C1387 484.418 1386.83 483.837 1386.5 483.342C1386.17 482.847 1385.7 482.461 1385.16 482.232C1384.61 482.003 1384 481.942 1383.42 482.056C1382.84 482.171 1382.3 482.455 1381.88 482.875C1381.46 483.294 1381.18 483.828 1381.06 484.41C1380.94 484.993 1381 485.596 1381.23 486.145C1381.45 486.694 1381.84 487.163 1382.33 487.494C1382.83 487.824 1383.41 488 1384 488C1384.79 488 1385.55 487.686 1386.12 487.125C1386.68 486.565 1387 485.805 1387 485.012ZM1382.29 485.012C1382.29 484.671 1382.39 484.337 1382.58 484.053C1382.77 483.769 1383.03 483.547 1383.35 483.415C1383.66 483.284 1384.01 483.249 1384.34 483.315C1384.68 483.381 1384.99 483.545 1385.23 483.785C1385.47 484.026 1385.63 484.334 1385.7 484.668C1385.76 485.002 1385.73 485.348 1385.6 485.663C1385.46 485.977 1385.24 486.245 1384.96 486.433C1384.67 486.621 1384.34 486.72 1384 486.718C1383.55 486.718 1383.11 486.538 1382.79 486.218C1382.47 485.898 1382.29 485.464 1382.29 485.012Z" fill="#162029"/>
</g>
</g>
<g opacity="0.2">
<circle cx="3" cy="3" r="2.25" transform="matrix(4.37114e-08 -1 -1 -4.37114e-08 1118 151)" stroke="#162029" stroke-width="1.5"/>
<circle cx="3" cy="3" r="2.25" transform="matrix(4.37114e-08 -1 -1 -4.37114e-08 1082 151)" stroke="#162029" stroke-width="1.5"/>
<path d="M1112.5 148C1086.9 148 1080.5 148 1080.5 148" stroke="#162029"/>
</g>
<g opacity="0.2">
<path d="M949.988 152C950.582 152.003 951.163 151.829 951.658 151.5C952.153 151.172 952.539 150.704 952.768 150.156C952.997 149.608 953.058 149.005 952.944 148.422C952.829 147.839 952.544 147.304 952.125 146.883C951.706 146.462 951.172 146.175 950.589 146.059C950.007 145.942 949.403 146.001 948.854 146.227C948.306 146.454 947.836 146.839 947.506 147.332C947.176 147.826 947 148.406 947 149C947 149.794 947.314 150.555 947.874 151.117C948.434 151.68 949.194 151.997 949.988 152ZM949.988 147.294C950.329 147.292 950.662 147.391 950.947 147.579C951.231 147.767 951.453 148.035 951.584 148.349C951.716 148.664 951.751 149.01 951.685 149.344C951.619 149.678 951.455 149.986 951.214 150.227C950.973 150.467 950.666 150.631 950.332 150.697C949.998 150.763 949.651 150.728 949.337 150.597C949.023 150.465 948.755 150.243 948.567 149.959C948.379 149.675 948.28 149.341 948.282 149C948.282 148.548 948.462 148.114 948.782 147.794C949.102 147.474 949.536 147.294 949.988 147.294Z" fill="#162029"/>
<circle cx="3" cy="3" r="2.25" transform="matrix(4.37114e-08 -1 -1 -4.37114e-08 1097.5 138)" stroke="#162029" stroke-width="1.5"/>
<path d="M1092.5 134.51L1058.5 134.51L1044 149.01L952 149.01" stroke="#162029"/>
</g>
<g opacity="0.2">
<path d="M1012 163H1019.89H1027.78H1035.68H1043.58H1051.47H1059.37H1067.26H1075.15H1083.05H1090.94H1098.84H1106.73H1114.63H1122.52H1130.42H1138.31H1146.2L1151.79 168.59L1157.37 174.17L1162.95 179.75V187.64V195.54V203.43" stroke="#162029" stroke-linecap="round" stroke-linejoin="round"/>
<path d="M1158.48 207.67C1158.48 208.56 1158.74 209.43 1159.24 210.17C1159.73 210.91 1160.44 211.487 1161.26 211.828C1162.08 212.168 1162.99 212.257 1163.86 212.084C1164.73 211.91 1165.53 211.481 1166.16 210.852C1166.79 210.223 1167.22 209.421 1167.39 208.548C1167.57 207.675 1167.48 206.77 1167.14 205.948C1166.8 205.126 1166.22 204.423 1165.48 203.929C1164.74 203.434 1163.87 203.17 1162.98 203.17C1161.79 203.17 1160.64 203.644 1159.8 204.488C1158.95 205.332 1158.48 206.477 1158.48 207.67Z" stroke="#162029" stroke-width="1.5"/>
</g>
<g opacity="0.4">
<path d="M68.5 516L68.5 435.5L88.5 415L95 415" stroke="url(#paint18_linear_1_9)"/>
<circle cx="97" cy="415" r="2.25" transform="rotate(-90 97 415)" stroke="#A19D99" stroke-width="1.5"/>
<circle cx="69" cy="518" r="2.25" transform="rotate(-90 69 518)" stroke="#A6D0DD" stroke-width="1.5"/>
</g>
<g opacity="0.2">
<path d="M34 287.5L21 309.5V407.5L45.5 432V497.5" stroke="#162029"/>
<circle cx="35.5" cy="285" r="3" transform="rotate(180 35.5 285)" stroke="#162029" stroke-width="2"/>
<circle cx="45.5" cy="501" r="3" transform="rotate(180 45.5 501)" stroke="#162029" stroke-width="2"/>
</g>
<defs>
<radialGradient id="paint0_radial_1_9" cx="0" cy="0" r="1" gradientUnits="userSpaceOnUse" gradientTransform="translate(720 543) rotate(90) scale(615 1896.44)">
<stop stop-color="#FFF3E5" stop-opacity="0"/>
<stop offset="1" stop-color="#FFF3E5"/>
</radialGradient>
<linearGradient id="paint1_linear_1_9" x1="290" y1="591" x2="290" y2="682.929" gradientUnits="userSpaceOnUse">
<stop stop-opacity="0"/>
<stop offset="0.494792"/>
<stop offset="1" stop-opacity="0"/>
</linearGradient>
<linearGradient id="paint2_linear_1_9" x1="338.825" y1="884.5" x2="338.824" y2="775" gradientUnits="userSpaceOnUse">
<stop stop-color="#FF6969"/>
<stop offset="1" stop-color="#A6D0DD"/>
</linearGradient>
<linearGradient id="paint3_linear_1_9" x1="338.77" y1="884.5" x2="338.77" y2="775" gradientUnits="userSpaceOnUse">
<stop stop-color="#FF6969"/>
<stop offset="1" stop-color="#A6D0DD"/>
</linearGradient>
<linearGradient id="paint4_linear_1_9" x1="389.054" y1="710.454" x2="365.429" y2="710.454" gradientUnits="userSpaceOnUse">
<stop stop-color="#162029" stop-opacity="0.4"/>
<stop offset="1" stop-color="#A6D0DD"/>
</linearGradient>
<linearGradient id="paint5_linear_1_9" x1="1360" y1="582" x2="1360" y2="692" gradientUnits="userSpaceOnUse">
<stop stop-color="#A6D0DD"/>
<stop offset="1" stop-color="#162029" stop-opacity="0.4"/>
</linearGradient>
<linearGradient id="paint6_linear_1_9" x1="979.166" y1="598.999" x2="979.166" y2="763.999" gradientUnits="userSpaceOnUse">
<stop stop-color="#162029" stop-opacity="0.2"/>
<stop offset="0.469695" stop-color="#FF6969" stop-opacity="0.44"/>
<stop offset="1" stop-color="#162029" stop-opacity="0.2"/>
</linearGradient>
<linearGradient id="paint7_linear_1_9" x1="1291" y1="584" x2="1291" y2="722.5" gradientUnits="userSpaceOnUse">
<stop stop-color="#162029" stop-opacity="0.4"/>
<stop offset="1" stop-color="#A6D0DD"/>
</linearGradient>
<linearGradient id="paint8_linear_1_9" x1="1371.55" y1="735.699" x2="1238.19" y2="645.931" gradientUnits="userSpaceOnUse">
<stop stop-color="#162029"/>
<stop offset="1" stop-color="#162029" stop-opacity="0"/>
</linearGradient>
<linearGradient id="paint9_linear_1_9" x1="1368.55" y1="746.699" x2="1278.55" y2="684.199" gradientUnits="userSpaceOnUse">
<stop stop-color="#162029"/>
<stop offset="1" stop-color="#162029" stop-opacity="0"/>
</linearGradient>
<linearGradient id="paint10_linear_1_9" x1="1269.05" y1="668.699" x2="1165.05" y2="668.699" gradientUnits="userSpaceOnUse">
<stop stop-color="#162029" stop-opacity="0.4"/>
<stop offset="1" stop-color="#A6D0DD"/>
</linearGradient>
<linearGradient id="paint11_linear_1_9" x1="913" y1="679" x2="913" y2="664" gradientUnits="userSpaceOnUse">
<stop stop-color="#162029"/>
<stop offset="1" stop-color="#162029" stop-opacity="0"/>
</linearGradient>
<linearGradient id="paint12_linear_1_9" x1="917" y1="679" x2="917" y2="659" gradientUnits="userSpaceOnUse">
<stop stop-color="#162029"/>
<stop offset="1" stop-color="#162029" stop-opacity="0"/>
</linearGradient>
<linearGradient id="paint13_linear_1_9" x1="909" y1="679" x2="909" y2="668" gradientUnits="userSpaceOnUse">
<stop stop-color="#162029"/>
<stop offset="1" stop-color="#162029" stop-opacity="0"/>
</linearGradient>
<linearGradient id="paint14_linear_1_9" x1="937.284" y1="752.5" x2="937.284" y2="862" gradientUnits="userSpaceOnUse">
<stop stop-color="#FF6969"/>
<stop offset="1" stop-color="#A6D0DD"/>
</linearGradient>
<linearGradient id="paint15_linear_1_9" x1="131.5" y1="48.2296" x2="241" y2="48.2298" gradientUnits="userSpaceOnUse">
<stop stop-color="#162029" stop-opacity="0.2"/>
<stop offset="0.469695" stop-color="#FF6969" stop-opacity="0.44"/>
<stop offset="1" stop-color="#A6D0DD"/>
</linearGradient>
<linearGradient id="paint16_linear_1_9" x1="583.5" y1="546.23" x2="474" y2="546.23" gradientUnits="userSpaceOnUse">
<stop stop-color="#162029" stop-opacity="0.2"/>
<stop offset="0.469695" stop-color="#FF6969" stop-opacity="0.44"/>
<stop offset="1" stop-color="#A6D0DD"/>
</linearGradient>
<linearGradient id="paint17_linear_1_9" x1="1380.23" y1="463.5" x2="1380.23" y2="354" gradientUnits="userSpaceOnUse">
<stop stop-color="#FF6969"/>
<stop offset="1" stop-color="#A6D0DD"/>
</linearGradient>
<linearGradient id="paint18_linear_1_9" x1="68.5" y1="516" x2="68.4998" y2="415" gradientUnits="userSpaceOnUse">
<stop stop-color="#A6D0DD"/>
<stop offset="1" stop-color="#162029" stop-opacity="0.4"/>
</linearGradient>
</defs>
</svg>
